<svg width="24" height="24" xmlns="http://www.w3.org/2000/svg">

 <g>
  <title>background</title>
  <rect fill="none" id="canvas_background" height="402" width="582" y="-1" x="-1"/>
 </g>
 <g>
  <title>Layer 1</title>
  <path fill="#ffffff" id="svg_1" d="m21,6.879l-3.879,-3.879c-0.293,-0.293 -0.678,-0.439 -1.061,-0.439c-0.384,0 -0.767,0.146 -1.06,0.439l-10.939,10.939c-0.293,0.293 -0.558,0.727 -0.75,1.188c-0.192,0.463 -0.311,0.959 -0.311,1.373l0,4.5l4.5,0c0.414,0 0.908,-0.119 1.371,-0.311c0.463,-0.192 0.896,-0.457 1.189,-0.75l10.94,-10.939c0.293,-0.293 0.439,-0.678 0.439,-1.061c0,-0.384 -0.146,-0.767 -0.439,-1.06zm-15.232,8.182l8.293,-8.293l1.232,1.232l-8.293,8.293l-1.232,-1.232zm1.732,3.939l-1.5,0l-1,-1l0,-1.5c0,-0.077 0.033,-0.305 0.158,-0.605c0.01,-0.02 2.967,2.938 2.967,2.938c-0.322,0.134 -0.548,0.167 -0.625,0.167zm1.439,-0.768l-1.232,-1.232l8.293,-8.293l1.232,1.232l-8.293,8.293zm9,-9l-3.172,-3.172l1.293,-1.293l3.17,3.172l-1.291,1.293z"/>
 </g>
</svg>